<svg width="1200" height="640" viewBox="0 0 1200 640" fill="none" xmlns="http://www.w3.org/2000/svg">
  <rect width="1200" height="640" fill="#071A2F"/>
  <path d="M0 500c190-84 310-88 498-12 208 84 376 78 702-92v244H0V500Z" fill="#13BCE7"/>
  <rect x="102" y="94" width="996" height="420" rx="28" fill="#F8FBFF" stroke="#061526" stroke-width="8"/>
  <path d="M196 376h808" stroke="#061526" stroke-width="8"/>
  <rect x="188" y="176" width="210" height="134" rx="20" fill="#075BBB" stroke="#061526" stroke-width="8"/>
  <rect x="494" y="176" width="210" height="134" rx="20" fill="#DFF7FF" stroke="#061526" stroke-width="8"/>
  <rect x="800" y="176" width="210" height="134" rx="20" fill="#FFEBE9" stroke="#061526" stroke-width="8"/>
  <path d="M398 244h96M704 244h96" stroke="#061526" stroke-width="10" stroke-linecap="round"/>
  <text x="226" y="256" fill="#F8FBFF" font-family="Arial, sans-serif" font-size="34" font-weight="900">BUILD</text>
  <text x="548" y="256" fill="#061526" font-family="Arial, sans-serif" font-size="34" font-weight="900">TEST</text>
  <text x="842" y="256" fill="#061526" font-family="Arial, sans-serif" font-size="34" font-weight="900">SHIP</text>
  <rect x="194" y="414" width="812" height="44" rx="12" fill="#061526"/>
  <text x="226" y="445" fill="#13BCE7" font-family="Arial, sans-serif" font-size="26" font-weight="900">CI/CD PIPELINE · CLOUD · OBSERVABILITY</text>
</svg>
