<svg width="1200" height="640" viewBox="0 0 1200 640" fill="none" xmlns="http://www.w3.org/2000/svg">
  <rect width="1200" height="640" fill="#061526"/>
  <circle cx="228" cy="164" r="160" fill="#FF4F5E"/>
  <circle cx="982" cy="504" r="220" fill="#075BBB"/>
  <path d="M600 84 910 202v178c0 126-126 210-310 248-184-38-310-122-310-248V202L600 84Z" fill="#F8FBFF" stroke="#061526" stroke-width="8"/>
  <path d="M600 150 842 242v138c0 84-78 148-242 184-164-36-242-100-242-184V242l242-92Z" fill="#13BCE7" stroke="#061526" stroke-width="8"/>
  <rect x="500" y="290" width="200" height="160" rx="24" fill="#061526"/>
  <path d="M536 290v-50c0-54 34-92 64-92s64 38 64 92v50" stroke="#061526" stroke-width="22" stroke-linecap="round"/>
  <circle cx="600" cy="362" r="24" fill="#F8FBFF"/>
  <path d="M600 382v40" stroke="#F8FBFF" stroke-width="14" stroke-linecap="round"/>
  <rect x="96" y="452" width="330" height="78" rx="18" fill="#F8FBFF" stroke="#061526" stroke-width="8"/>
  <text x="134" y="504" fill="#061526" font-family="Arial, sans-serif" font-size="34" font-weight="900">SECURITY</text>
</svg>
