<svg width="1200" height="640" viewBox="0 0 1200 640" fill="none" xmlns="http://www.w3.org/2000/svg">
  <rect width="1200" height="640" fill="#061526"/>
  <circle cx="980" cy="116" r="220" fill="#075BBB"/>
  <circle cx="165" cy="522" r="190" fill="#13BCE7"/>
  <path d="M0 0h1200v640H0z" fill="url(#grid)" opacity=".28"/>
  <rect x="104" y="104" width="760" height="420" rx="24" fill="#F8FBFF" stroke="#061526" stroke-width="8"/>
  <rect x="104" y="104" width="760" height="72" rx="24" fill="#13BCE7" stroke="#061526" stroke-width="8"/>
  <circle cx="156" cy="140" r="14" fill="#FF4F5E"/>
  <circle cx="202" cy="140" r="14" fill="#FFE66D"/>
  <circle cx="248" cy="140" r="14" fill="#39D98A"/>
  <rect x="152" y="230" width="264" height="28" rx="8" fill="#075BBB"/>
  <rect x="152" y="286" width="520" height="24" rx="8" fill="#DFF7FF"/>
  <rect x="152" y="336" width="448" height="24" rx="8" fill="#DFF7FF"/>
  <rect x="152" y="404" width="210" height="58" rx="12" fill="#061526"/>
  <text x="190" y="443" fill="#F8FBFF" font-family="Arial, sans-serif" font-size="28" font-weight="900">APP ROUTER</text>
  <rect x="710" y="224" width="318" height="256" rx="28" fill="#FFFFFF" stroke="#061526" stroke-width="8"/>
  <text x="754" y="320" fill="#075BBB" font-family="Arial, sans-serif" font-size="52" font-weight="900">NEXT</text>
  <text x="754" y="388" fill="#061526" font-family="Arial, sans-serif" font-size="40" font-weight="900">SUPABASE</text>
  <defs>
    <pattern id="grid" width="36" height="36" patternUnits="userSpaceOnUse">
      <path d="M36 0H0v36" stroke="#F8FBFF" stroke-width="2"/>
    </pattern>
  </defs>
</svg>
